<svg width="24" height="20" viewBox="0 0 24 20" fill="none" xmlns="http://www.w3.org/2000/svg">
<path d="M20.875 10.041C20.224 9.7806 19.5241 9.65039 18.7754 9.65039C17.0176 9.71549 15.5527 10.334 14.3809 11.5059C13.209 12.6777 12.5905 14.1426 12.5254 15.9004C12.5254 16.2585 12.5579 16.6165 12.623 16.9746H2.125C1.53906 16.9421 1.05078 16.7305 0.660156 16.3398C0.269531 15.9492 0.0579428 15.4609 0.0253907 14.875V2.375C0.0579428 1.78906 0.269531 1.30078 0.660156 0.910155C1.05078 0.51953 1.53906 0.307941 2.125 0.275389H18.7754C19.3613 0.307941 19.8496 0.51953 20.2402 0.910155C20.6634 1.30078 20.875 1.78906 20.875 2.375V10.041ZM23.4629 13.8496L18.2871 19.0254L14.625 15.4121L16.1875 13.8496L18.2871 15.9004L21.9004 12.2871L23.4629 13.8496ZM2.125 2.375V4.47461L10.4746 9.65039L18.7754 4.47461V2.375L10.4746 7.59961L2.125 2.375Z" fill="#9DB0C4"/>
</svg>
