<svg width="86" height="86" viewBox="0 0 86 86" fill="none" xmlns="http://www.w3.org/2000/svg">
<g opacity="0.5" clip-path="url(#clip0)">
<path d="M40.6636 17.368L69.2037 25.0153L66.9378 33.4716L38.3977 25.8243L40.6636 17.368Z" fill="white"/>
<path d="M38.1349 9.89282L22.2738 69.0871L58.8474 78.887C59.6487 79.1017 60.457 78.7994 60.6105 78.2265L75.9051 21.1463C76.0586 20.5733 75.5097 19.9074 74.7085 19.6927L38.1349 9.89282Z" fill="white"/>
<path d="M25.5614 31.4483C25.7117 30.8876 25.633 30.2902 25.3428 29.7875C25.0526 29.2848 24.5745 28.918 24.0138 28.7678L17.6716 27.0684C17.1109 26.9182 16.5135 26.9968 16.0108 27.287C15.5081 27.5773 15.1413 28.0553 14.991 28.616C14.8408 29.1767 14.9194 29.7741 15.2097 30.2768C15.4999 30.7795 15.978 31.1463 16.5386 31.2966L22.8809 32.996C23.4416 33.1462 24.039 33.0675 24.5417 32.7773C25.0444 32.4871 25.4112 32.009 25.5614 31.4483Z" fill="white"/>
<path d="M22.1626 44.1328C22.3129 43.5721 22.2342 42.9747 21.944 42.472C21.6537 41.9693 21.1757 41.6025 20.615 41.4523L14.2728 39.7529C13.7121 39.6026 13.1147 39.6813 12.612 39.9715C12.1093 40.2617 11.7425 40.7398 11.5922 41.3005C11.442 41.8612 11.5206 42.4586 11.8109 42.9613C12.1011 43.464 12.5792 43.8308 13.1398 43.981L19.4821 45.6804C20.0428 45.8307 20.6402 45.752 21.1429 45.4618C21.6456 45.1715 22.0124 44.6935 22.1626 44.1328Z" fill="white"/>
<path d="M26.7148 10.2316L25.8651 13.4027L27.9791 13.9692C29.1005 14.2697 30.0566 15.0033 30.6371 16.0087C31.2175 17.0141 31.3748 18.2089 31.0744 19.3303C30.7739 20.4517 30.0403 21.4078 29.0349 21.9882C28.0295 22.5687 26.8346 22.726 25.7133 22.4255L23.5992 21.8591L22.4663 26.0872L24.5803 26.6537C25.7017 26.9542 26.6578 27.6878 27.2383 28.6932C27.8187 29.6986 27.976 30.8934 27.6756 32.0148C27.3751 33.1362 26.6415 34.0923 25.6361 34.6727C24.6307 35.2532 23.4358 35.4105 22.3145 35.11L20.2004 34.5436L19.0675 38.7717L21.1815 39.3382C22.3029 39.6387 23.259 40.3723 23.8395 41.3777C24.4199 42.3831 24.5772 43.5779 24.2768 44.6993C23.9763 45.8207 23.2427 46.7767 22.2373 47.3572C21.2319 47.9377 20.0371 48.095 18.9157 47.7945L16.8016 47.228L15.6687 51.4562L17.7827 52.0227C18.9041 52.3232 19.8602 53.0568 20.4407 54.0622C21.0211 55.0676 21.1784 56.2624 20.878 57.3838C20.5775 58.5052 19.8439 59.4612 18.8385 60.0417C17.8331 60.6222 16.6383 60.7795 15.5169 60.479L13.4028 59.9125L12.5531 63.0837C12.0846 64.832 13.5056 66.7377 15.7201 67.3311L20.1597 68.5206L36.0208 9.32637L31.5812 8.13679C29.3667 7.54341 27.1832 8.48328 26.7148 10.2316Z" fill="white"/>
<path d="M19.9374 18.612L26.2797 20.3114C26.8404 20.4617 27.4378 20.383 27.9405 20.0928C28.4432 19.8026 28.81 19.3245 28.9602 18.7638C29.1105 18.2031 29.0318 17.6057 28.7416 17.103C28.4514 16.6003 27.9733 16.2335 27.4126 16.0833L21.0704 14.3839C20.5097 14.2336 19.9123 14.3123 19.4096 14.6025C18.9069 14.8928 18.5401 15.3708 18.3898 15.9315C18.2396 16.4922 18.3182 17.0896 18.6085 17.5923C18.8987 18.095 19.3768 18.4618 19.9374 18.612V18.612Z" fill="white"/>
<path d="M18.7638 56.8173C18.9141 56.2566 18.8354 55.6592 18.5452 55.1565C18.2549 54.6538 17.7769 54.287 17.2162 54.1367L10.874 52.4373C10.3133 52.2871 9.71587 52.3658 9.21317 52.656C8.71047 52.9462 8.34366 53.4243 8.19342 53.985C8.04319 54.5457 8.12183 55.1431 8.41207 55.6458C8.7023 56.1485 9.18035 56.5153 9.74104 56.6655L16.0833 58.3649C16.644 58.5151 17.2414 58.4365 17.7441 58.1463C18.2468 57.856 18.6136 57.378 18.7638 56.8173Z" fill="white"/>
</g>
<defs>
<clipPath id="clip0">
<rect width="70.0371" height="70.0371" fill="white" transform="translate(18.127) rotate(15)"/>
</clipPath>
</defs>
</svg>
