<svg width="25" height="26" viewBox="0 0 25 26" fill="none" xmlns="http://www.w3.org/2000/svg">
<path d="M22.8125 0.825012L24.6875 2.70001L17.0625 10.325C17.7708 11.3667 18.1667 12.45 18.25 13.575C18.3333 14.6583 18.0833 15.6167 17.5 16.45L9.0625 8.01251C9.89583 7.42918 10.8542 7.17918 11.9375 7.26251C13.0625 7.34585 14.1458 7.74168 15.1875 8.45001L22.8125 0.825012ZM4.9375 20.6375C3.5625 19.2625 2.47917 17.825 1.6875 16.325C0.895833 14.7833 0.375 13.2625 0.125 11.7625L6.625 8.95001L16.5625 18.8875L13.75 25.3875C12.25 25.1792 10.7292 24.6792 9.1875 23.8875C7.6875 23.0542 6.27083 21.9708 4.9375 20.6375Z" fill="#9DB0C4"/>
</svg>
