<svg width="26" height="22" viewBox="0 0 26 22" fill="none" xmlns="http://www.w3.org/2000/svg">
<path d="M11.3105 17.1855V5.06445H2.81445V17.1855H11.3105ZM11.3105 0.25C11.9902 0.25 12.5566 0.495443 13.0098 0.986328C13.4629 1.43945 13.6895 2.00586 13.6895 2.68555V19.5645C13.6895 20.2441 13.4629 20.8294 13.0098 21.3203C12.5566 21.7734 11.9902 22 11.3105 22H2.81445C2.13477 22 1.56836 21.7734 1.11523 21.3203C0.662109 20.8294 0.435547 20.2441 0.435547 19.5645V2.68555C0.435547 2.00586 0.662109 1.43945 1.11523 0.986328C1.56836 0.495443 2.13477 0.25 2.81445 0.25H11.3105ZM17.9375 0.25H23.998C24.4889 0.25 24.9043 0.419922 25.2441 0.759766C25.584 1.09961 25.7728 1.53385 25.8105 2.0625V5.6875C25.7728 6.21615 25.584 6.65039 25.2441 6.99023C24.9043 7.33008 24.4889 7.5 23.998 7.5H19.75L16.125 11.125V2.0625C16.125 1.53385 16.2949 1.09961 16.6348 0.759766C16.9746 0.419922 17.4089 0.25 17.9375 0.25Z" fill="#9DB0C4"/>
</svg>
