<svg width="82" height="82" viewBox="0 0 82 82" fill="none" xmlns="http://www.w3.org/2000/svg">
<g opacity="0.4">
<path d="M41.0002 49.1932L16.5388 41.6643V49.0714V54.2387C16.5388 60.0519 27.4942 64.765 41.0076 64.765C54.5202 64.765 65.4775 60.0519 65.4775 54.2387C65.4775 54.1929 65.4625 54.1469 65.4615 54.1022V41.6643L41.0002 49.1932Z" fill="white"/>
<path d="M0 33.0084L8.7388 36.1344L9.48351 34.5395L12.6939 34.2666L13.1516 34.7429L10.3968 35.3961L9.9953 36.5845C9.99458 36.5845 3.77263 49.5922 4.68645 55.9556C4.68645 55.9556 8.5702 58.2722 12.4523 55.9556L13.484 38.5573V37.1091L19.2627 35.8055L18.8545 36.8106L14.546 38.2116L16.5387 38.9235L41.0002 46.4524L65.4614 38.9235L82 33.0085L41.0002 17.2348L0 33.0084Z" fill="white"/>
</g>
</svg>
