<svg width="20" height="17" viewBox="0 0 20 17" fill="none" xmlns="http://www.w3.org/2000/svg">
<path d="M15.5 0.5H4.5V4.15234H15.5V0.5ZM16.4023 8.75C16.1445 8.75 15.9297 8.66406 15.7578 8.49219C15.5859 8.32031 15.5 8.10547 15.5 7.84766C15.5 7.58984 15.5859 7.375 15.7578 7.20312C15.9297 7.03125 16.1445 6.94531 16.4023 6.94531C16.6602 6.94531 16.875 7.03125 17.0469 7.20312C17.2188 7.375 17.3047 7.58984 17.3047 7.84766C17.3047 8.10547 17.2188 8.32031 17.0469 8.49219C16.875 8.66406 16.6602 8.75 16.4023 8.75ZM13.6523 15.1523H6.34766V10.5977H13.6523V15.1523ZM16.4023 5.09766H3.59766C2.79557 5.09766 2.13672 5.35547 1.62109 5.87109C1.10547 6.38672 0.847656 7.04557 0.847656 7.84766V13.3477H4.5V17H15.5V13.3477H19.1523V7.84766C19.1523 7.04557 18.8945 6.38672 18.3789 5.87109C17.8633 5.35547 17.2044 5.09766 16.4023 5.09766Z" fill="white"/>
</svg>
