<?xml version="1.0" encoding="utf-8"?><svg viewBox="0 0 225 129" xmlns="http://www.w3.org/2000/svg" xmlns:xlink="http://www.w3.org/1999/xlink"><style>:root>svg{display:none}:root>svg:target{display:block}</style><svg fill="none" viewBox="0 0 86 86" id="Icon_agenda" xmlns="http://www.w3.org/2000/svg"><g opacity=".5" clip-path="url(#aclip0)" fill="#fff"><path d="M40.664 17.368l28.54 7.647-2.266 8.457-28.54-7.648 2.266-8.456z"/><path d="M38.135 9.893L22.274 69.087l36.573 9.8c.802.215 1.61-.088 1.764-.66l15.294-57.08c.154-.574-.395-1.24-1.197-1.454l-36.573-9.8zM25.561 31.448a2.189 2.189 0 00-1.547-2.68l-6.342-1.7a2.189 2.189 0 00-1.133 4.229l6.342 1.699a2.189 2.189 0 002.68-1.548zM22.163 44.133a2.189 2.189 0 00-1.548-2.68l-6.342-1.7a2.189 2.189 0 10-1.133 4.228l6.342 1.7a2.189 2.189 0 002.68-1.548z"/><path d="M26.715 10.232l-.85 3.17 2.114.567a4.378 4.378 0 01-2.266 8.457l-2.114-.567-1.133 4.228 2.114.567a4.378 4.378 0 01-2.265 8.456l-2.115-.566-1.133 4.228 2.114.566a4.378 4.378 0 01-2.265 8.456l-2.114-.566-1.133 4.228 2.114.567a4.378 4.378 0 01-2.266 8.456l-2.114-.566-.85 3.17c-.468 1.749.953 3.655 3.167 4.248l4.44 1.19L36.02 9.326l-4.439-1.19c-2.214-.593-4.398.347-4.866 2.096z"/><path d="M19.937 18.612l6.343 1.7a2.189 2.189 0 101.133-4.229l-6.343-1.7a2.189 2.189 0 10-1.133 4.229zM18.764 56.817a2.189 2.189 0 00-1.548-2.68l-6.342-1.7a2.19 2.19 0 00-1.133 4.229l6.342 1.699a2.189 2.189 0 002.68-1.548z"/></g><defs><clipPath id="aclip0"><path fill="#fff" transform="rotate(15 9.063 68.844)" d="M0 0h70.037v70.037H0z"/></clipPath></defs></svg><svg fill="none" viewBox="0 0 16 10" id="Icon_arrow_down" xmlns="http://www.w3.org/2000/svg"><path d="M7.9 6.81l.1.1.1-.1L14.391.517a.86.86 0 011.216 1.216l-7 7a.86.86 0 01-1.216 0l-7-7a.856.856 0 010-1.215h0a.86.86 0 011.216 0l.099-.1-.1.1L7.9 6.81z" fill="#000" fill-opacity=".4" stroke="#9DB0C4" stroke-width=".281"/></svg><svg fill="none" viewBox="0 0 24 24" id="Icon_arrow_left" xmlns="http://www.w3.org/2000/svg"><path d="M15.41 16.59L10.83 12l4.58-4.59L14 6l-6 6 6 6 1.41-1.41z" fill="#fff"/></svg><svg fill="none" viewBox="0 0 24 24" id="Icon_arrow_right" xmlns="http://www.w3.org/2000/svg"><path d="M8.59 16.59L13.17 12 8.59 7.41 10 6l6 6-6 6-1.41-1.41z" fill="#fff"/></svg><svg fill="none" viewBox="0 0 34 32" id="Icon_arrow_step" xmlns="http://www.w3.org/2000/svg"><g clip-path="url(#eclip0)" stroke="#fff"><path d="M-2.115 36.833V-4.833H38.73v41.666H-2.115z"/><path d="M11.188 12.983l-.834.85H33.5v4.334H10.355l.833.85 8.269 8.43-2.999 3.058L2.232 16 16.458 1.495l2.999 3.057-8.27 8.431z" fill="#9DB0C4"/></g><defs><clipPath id="eclip0"><path fill="#fff" d="M0 0h34v32H0z"/></clipPath></defs></svg><svg fill="none" viewBox="0 0 11 18" id="Icon_arrow_strike_right" xmlns="http://www.w3.org/2000/svg"><path d="M7.508 9.1l.1-.1-.1-.1-7.08-7.079A.984.984 0 011.822.43l7.875 7.875a.985.985 0 010 1.392l-7.875 7.875a.98.98 0 01-1.392 0h0a.984.984 0 010-1.392L7.51 9.1z" fill="#9DB0C4" stroke="#F8F6F6" stroke-width=".281"/></svg><svg fill="none" viewBox="0 0 16 10" id="Icon_arrow_up" xmlns="http://www.w3.org/2000/svg"><path d="M8.1 2.44l-.1-.1-.1.1-6.292 6.293A.86.86 0 01.392 7.517l7-7a.86.86 0 011.216 0l7 7a.856.856 0 010 1.215h0a.86.86 0 01-1.216 0l-.099.1.1-.1L8.1 2.44z" fill="#000" fill-opacity=".4" stroke="#9DB0C4" stroke-width=".281"/></svg><svg fill="none" viewBox="0 0 25 26" id="Icon_clear" xmlns="http://www.w3.org/2000/svg"><path d="M22.813.825L24.688 2.7l-7.625 7.625c.708 1.042 1.104 2.125 1.187 3.25.083 1.083-.167 2.042-.75 2.875L9.062 8.013c.834-.584 1.792-.834 2.876-.75 1.124.083 2.208.479 3.25 1.187L22.811.825zM4.938 20.638c-1.375-1.376-2.459-2.813-3.25-4.313C.895 14.783.375 13.262.125 11.762l6.5-2.812 9.938 9.938-2.813 6.5c-1.5-.209-3.02-.709-4.563-1.5-1.5-.834-2.916-1.917-4.25-3.25z" fill="#9DB0C4"/></svg><svg fill="none" viewBox="0 0 18 18" id="Icon_close" xmlns="http://www.w3.org/2000/svg"><path d="M14.25 2.25H3.75a1.5 1.5 0 00-1.5 1.5v10.5a1.5 1.5 0 001.5 1.5h10.5a1.5 1.5 0 001.5-1.5V3.75a1.5 1.5 0 00-1.5-1.5zm-2.55 10.5L9 10.05l-2.7 2.7-1.05-1.05L7.95 9l-2.7-2.7L6.3 5.25 9 7.95l2.7-2.7 1.05 1.05-2.7 2.7 2.7 2.7-1.05 1.05z" fill="#284664"/></svg><svg fill="none" viewBox="0 0 17 19" id="Icon_delete" xmlns="http://www.w3.org/2000/svg"><path d="M5.112.775v.997H.034v2.04h1.044V16.96c0 .57.19 1.06.57 1.471.38.38.854.57 1.424.57h10.156c.57 0 1.045-.19 1.424-.57.38-.41.57-.901.57-1.47V3.811h1.044v-2.04h-5.078V.775H5.112zm-2.04 3.037h10.156V16.96H3.072V3.813zm2.04 2.041v9.113h2.041V5.853h-2.04zm4.035 0v9.113h2.04V5.853h-2.04z" fill="#9DB0C4"/></svg><svg fill="none" viewBox="0 0 17 19" id="Icon_delete_hover" xmlns="http://www.w3.org/2000/svg"><path d="M5.112.775v.997H.034v2.04h1.044V16.96c0 .57.19 1.06.57 1.471.38.38.854.57 1.424.57h10.156c.57 0 1.045-.19 1.424-.57.38-.41.57-.901.57-1.47V3.811h1.044v-2.04h-5.078V.775H5.112zm-2.04 3.037h10.156V16.96H3.072V3.813zm2.04 2.041v9.113h2.041V5.853h-2.04zm4.035 0v9.113h2.04V5.853h-2.04z" fill="#E11838"/></svg><svg fill="none" viewBox="0 0 10 12" id="Icon_download" xmlns="http://www.w3.org/2000/svg"><path d="M.344 11.344h9.312V10H.344v1.344zM9.656 4H7V0H3v4H.344L5 8.656 9.656 4z" fill="#284664"/></svg><svg fill="none" viewBox="0 0 17 16" id="Icon_edit" xmlns="http://www.w3.org/2000/svg"><path d="M16.129 3.777a.835.835 0 00.246-.615.835.835 0 00-.246-.615l-2.05-2.05a.835.835 0 00-.616-.247.835.835 0 00-.615.246l-1.6 1.6 3.281 3.281 1.6-1.6zM.625 12.72V16h3.281l9.68-9.68-3.281-3.28-9.68 9.679z" fill="#9DB0C4"/></svg><svg fill="none" viewBox="0 0 24 24" id="Icon_info" xmlns="http://www.w3.org/2000/svg"><path d="M12 2C6.48 2 2 6.48 2 12s4.48 10 10 10 10-4.48 10-10S17.52 2 12 2zm1 15h-2v-6h2v6zm0-8h-2V7h2v2z" fill="#284664"/></svg><svg fill="none" viewBox="0 0 26 32" id="Icon_location_normal" xmlns="http://www.w3.org/2000/svg"><path fill-rule="evenodd" clip-rule="evenodd" d="M13 32c2.87 0 13-12.683 13-19.556C26 5.572 20.18 0 13 0S0 5.572 0 12.444C0 19.317 10.13 32 13 32zm0-14.222c3.077 0 5.571-2.388 5.571-5.333 0-2.946-2.494-5.334-5.571-5.334-3.077 0-5.571 2.388-5.571 5.333 0 2.946 2.494 5.334 5.571 5.334z" fill="#3C6289"/></svg><svg fill="none" viewBox="0 0 68 80" id="Icon_location_selected" xmlns="http://www.w3.org/2000/svg"><g filter="url(#pfilter0_d)"><path d="M57 31.333c0 3.012-1.102 6.76-2.916 10.752-1.804 3.972-4.273 8.098-6.914 11.837-2.642 3.74-5.438 7.066-7.882 9.444-1.224 1.191-2.34 2.125-3.288 2.754-.99.656-1.65.88-2 .88-.35 0-1.01-.224-2-.88-.948-.63-2.064-1.563-3.288-2.754-2.444-2.378-5.24-5.704-7.882-9.444-2.641-3.739-5.11-7.865-6.914-11.837C12.101 38.094 11 34.345 11 31.333 11 19.025 21.27 9 34 9s23 10.025 23 22.333zm-23 11c6.206 0 11.286-4.898 11.286-11 0-6.101-5.08-11-11.286-11-6.206 0-11.286 4.899-11.286 11 0 6.102 5.08 11 11.286 11z" fill="#E11838" stroke="#fff" stroke-width="2"/></g><defs><filter id="pfilter0_d" x="0" y="0" width="68" height="80" filterUnits="userSpaceOnUse" color-interpolation-filters="sRGB"><feFlood flood-opacity="0" result="BackgroundImageFix"/><feColorMatrix in="SourceAlpha" values="0 0 0 0 0 0 0 0 0 0 0 0 0 0 0 0 0 0 127 0"/><feOffset dy="2"/><feGaussianBlur stdDeviation="5"/><feColorMatrix values="0 0 0 0 0 0 0 0 0 0 0 0 0 0 0 0 0 0 0.25 0"/><feBlend in2="BackgroundImageFix" result="effect1_dropShadow"/><feBlend in="SourceGraphic" in2="effect1_dropShadow" result="shape"/></filter></defs></svg><svg fill="none" viewBox="0 0 24 20" id="Icon_mail" xmlns="http://www.w3.org/2000/svg"><path d="M20.875 10.041a5.6 5.6 0 00-2.1-.39c-1.757.064-3.222.683-4.394 1.855-1.172 1.172-1.79 2.637-1.856 4.394 0 .359.033.716.098 1.075H2.125c-.586-.033-1.074-.245-1.465-.635-.39-.39-.602-.88-.635-1.465v-12.5C.058 1.789.27 1.301.66.91c.39-.39.88-.602 1.465-.635h16.65c.586.033 1.075.245 1.465.635.423.39.635.88.635 1.465v7.666zm2.588 3.809l-5.176 5.175-3.662-3.613 1.563-1.562 2.1 2.05 3.612-3.613 1.563 1.563zM2.125 2.375v2.1l8.35 5.175 8.3-5.175v-2.1l-8.3 5.225-8.35-5.225z" fill="#9DB0C4"/></svg><svg fill="none" viewBox="0 0 26 22" id="Icon_mobile" xmlns="http://www.w3.org/2000/svg"><path d="M11.31 17.186V5.064H2.814v12.122h8.496zm0-16.936c.68 0 1.247.245 1.7.736.453.453.68 1.02.68 1.7v16.878a2.5 2.5 0 01-.68 1.756c-.453.453-1.02.68-1.7.68H2.814c-.68 0-1.246-.227-1.699-.68a2.5 2.5 0 01-.68-1.756V2.686c0-.68.227-1.247.68-1.7a2.216 2.216 0 011.7-.736h8.495zm6.627 0h6.061c.49 0 .906.17 1.246.51.34.34.529.774.567 1.303v3.624c-.038.53-.227.963-.567 1.303-.34.34-.755.51-1.246.51H19.75l-3.625 3.625V2.062c0-.528.17-.962.51-1.302.34-.34.774-.51 1.302-.51z" fill="#9DB0C4"/></svg><svg fill="none" viewBox="0 0 14 15" id="Icon_plus" xmlns="http://www.w3.org/2000/svg"><path d="M8.48 6.055h4.7v3.398h-4.7v5.313H4.897V9.453H.185V6.055h4.713V.964H8.48v5.09z" fill="#fff"/></svg><svg fill="none" viewBox="0 0 20 17" id="Icon_print" xmlns="http://www.w3.org/2000/svg"><path d="M15.5.5h-11v3.652h11V.5zm.902 8.25a.874.874 0 01-.644-.258.874.874 0 01-.258-.644c0-.258.086-.473.258-.645a.874.874 0 01.644-.258c.258 0 .473.086.645.258a.874.874 0 01.258.645.874.874 0 01-.258.644.875.875 0 01-.645.258zm-2.75 6.402H6.348v-4.554h7.304v4.554zm2.75-10.054H3.598c-.802 0-1.461.257-1.977.773S.848 7.046.848 7.848v5.5H4.5V17h11v-3.652h3.652v-5.5c0-.802-.258-1.461-.773-1.977-.516-.516-1.175-.773-1.977-.773z" fill="#fff"/></svg><svg fill="none" viewBox="0 0 82 82" id="Icon_studentscap" xmlns="http://www.w3.org/2000/svg"><g opacity=".4" fill="#fff"><path d="M41 49.193L16.54 41.664V54.24c0 5.813 10.955 10.526 24.469 10.526 13.512 0 24.47-4.713 24.47-10.526 0-.046-.015-.092-.016-.137V41.664L41 49.194z"/><path d="M0 33.008l8.739 3.126.745-1.595 3.21-.272.458.476-2.755.653-.402 1.188S3.773 49.593 4.686 55.956c0 0 3.884 2.316 7.766 0l1.032-17.399V37.11l5.779-1.303-.409 1.005-4.308 1.4 1.993.712L41 46.453l24.461-7.53L82 33.008 41 17.235 0 33.008z"/></g></svg><svg fill="none" viewBox="0 0 225 129" id="Union" xmlns="http://www.w3.org/2000/svg"><g filter="url(#vfilter0_d)"><path fill-rule="evenodd" clip-rule="evenodd" d="M22 16a2 2 0 00-2 2v75a2 2 0 002 2h77.277l13.223 10 13.223-10H203a2 2 0 002-2V18a2 2 0 00-2-2H22z" fill="#fff"/></g><defs><filter id="vfilter0_d" x="0" y="0" width="225" height="129" filterUnits="userSpaceOnUse" color-interpolation-filters="sRGB"><feFlood flood-opacity="0" result="BackgroundImageFix"/><feColorMatrix in="SourceAlpha" values="0 0 0 0 0 0 0 0 0 0 0 0 0 0 0 0 0 0 127 0"/><feOffset dy="4"/><feGaussianBlur stdDeviation="10"/><feColorMatrix values="0 0 0 0 0.217969 0 0 0 0 0.390234 0 0 0 0 0.5625 0 0 0 0.2 0"/><feBlend in2="BackgroundImageFix" result="effect1_dropShadow"/><feBlend in="SourceGraphic" in2="effect1_dropShadow" result="shape"/></filter></defs></svg></svg>